<?xml version="1.0" encoding="UTF-8"?>
<svg width="32px" height="26px" viewBox="0 0 32 26" version="1.1" xmlns="http://www.w3.org/2000/svg" xmlns:xlink="http://www.w3.org/1999/xlink">
    <!-- Generator: Sketch 52.5 (67469) - http://www.bohemiancoding.com/sketch -->
    <title>Team_icon</title>
    <desc>Created with Sketch.</desc>
    <defs>
        <polygon id="path-1" points="0.0752324358 0.665 7.04785471 0.665 7.04785471 7.6015 0.0752324358 7.6015"></polygon>
        <polygon id="path-3" points="0.0471556029 0.665 7.01984695 0.665 7.01984695 7.6015 0.0471556029 7.6015"></polygon>
        <polygon id="path-5" points="0.0183451551 0.665 6.99148004 0.665 6.99148004 7.6015 0.0183451551 7.6015"></polygon>
        <polygon id="path-7" points="0 0.2016 31.0679 0.2016 31.0679 15.9996 0 15.9996"></polygon>
    </defs>
    <g id="Team_icon" stroke="none" stroke-width="1" fill="none" fill-rule="evenodd">
        <g id="分组">
            <g transform="translate(2.000000, 0.335500)">
                <mask id="mask-2" fill="white">
                    <use xlink:href="#path-1"></use>
                </mask>
                <g id="Clip-2"></g>
                <path d="M3.5625,0.6645 C2.3995,0.6645 1.3175,1.2385 0.6695,2.1985 C0.0065,3.1785 -0.1075,4.3925 0.3565,5.5255 C0.6895,6.3375 1.3475,6.9935 2.1635,7.3235 C2.6195,7.5085 3.0905,7.6015 3.5625,7.6015 C4.6565,7.6015 5.6665,7.1055 6.3325,6.2375 C6.9985,5.3725 7.2125,4.2595 6.9195,3.1855 C6.6035,2.0235 5.6825,1.1085 4.5145,0.7925 C4.2015,0.7075 3.8795,0.6645 3.5625,0.6645 M3.5625,1.9945 C3.7635,1.9945 3.9675,2.0205 4.1685,2.0765 C4.8815,2.2685 5.4445,2.8285 5.6365,3.5355 C5.8195,4.2045 5.6885,4.8955 5.2785,5.4295 C4.8655,5.9645 4.2395,6.2725 3.5625,6.2725 C3.2615,6.2725 2.9595,6.2125 2.6635,6.0925 C2.1775,5.8945 1.7845,5.5035 1.5865,5.0215 C1.2905,4.2965 1.3545,3.5575 1.7715,2.9425 C2.1725,2.3505 2.8425,1.9945 3.5625,1.9945" id="Fill-1" fill="#EB6800" mask="url(#mask-2)"></path>
            </g>
            <g transform="translate(12.000000, 0.335500)">
                <mask id="mask-4" fill="white">
                    <use xlink:href="#path-3"></use>
                </mask>
                <g id="Clip-4"></g>
                <path d="M3.5347,0.6645 C2.3717,0.6645 1.2897,1.2385 0.6407,2.1985 C-0.0213,3.1785 -0.1353,4.3925 0.3277,5.5255 C0.6597,6.3375 1.3187,6.9935 2.1357,7.3235 C2.5917,7.5085 3.0617,7.6015 3.5347,7.6015 C4.6287,7.6015 5.6387,7.1055 6.3037,6.2375 C6.9697,5.3725 7.1847,4.2595 6.8917,3.1855 C6.5747,2.0235 5.6537,1.1085 4.4857,0.7925 C4.1727,0.7075 3.8517,0.6645 3.5347,0.6645 M3.5347,1.9945 C3.7347,1.9945 3.9387,2.0215 4.1397,2.0765 C4.8537,2.2685 5.4157,2.8285 5.6077,3.5355 C5.7907,4.2045 5.6607,4.8955 5.2487,5.4295 C4.8367,5.9645 4.2107,6.2725 3.5347,6.2725 C3.2327,6.2725 2.9317,6.2125 2.6347,6.0925 C2.1487,5.8945 1.7557,5.5055 1.5597,5.0215 C1.2617,4.2965 1.3277,3.5575 1.7417,2.9425 C2.1437,2.3505 2.8137,1.9945 3.5347,1.9945" id="Fill-3" fill="#EB6800" mask="url(#mask-4)"></path>
            </g>
            <g transform="translate(22.000000, 0.335500)">
                <mask id="mask-6" fill="white">
                    <use xlink:href="#path-5"></use>
                </mask>
                <g id="Clip-6"></g>
                <path d="M3.5061,0.6645 C2.3431,0.6645 1.2611,1.2385 0.6121,2.1985 C-0.0499,3.1785 -0.1639,4.3925 0.2981,5.5255 C0.6311,6.3375 1.2911,6.9935 2.1061,7.3235 C2.5621,7.5085 3.0331,7.6015 3.5051,7.6015 C4.5991,7.6015 5.6091,7.1055 6.2771,6.2375 C6.9421,5.3725 7.1561,4.2595 6.8631,3.1855 C6.5481,2.0235 5.6251,1.1085 4.4571,0.7925 C4.1431,0.7075 3.8241,0.6645 3.5061,0.6645 M3.5061,1.9945 C3.7061,1.9945 3.9101,2.0205 4.1111,2.0765 C4.8251,2.2685 5.3891,2.8285 5.5801,3.5355 C5.7621,4.2045 5.6321,4.8955 5.2211,5.4295 C4.8091,5.9645 4.1841,6.2725 3.5051,6.2725 C3.2041,6.2725 2.9031,6.2125 2.6071,6.0925 C2.1201,5.8945 1.7271,5.5055 1.5291,5.0215 C1.2331,4.2965 1.2991,3.5575 1.7131,2.9445 C2.1141,2.3505 2.7861,1.9945 3.5061,1.9945" id="Fill-5" fill="#EB6800" mask="url(#mask-6)"></path>
            </g>
            <g transform="translate(0.000000, 9.335500)">
                <mask id="mask-8" fill="white">
                    <use xlink:href="#path-7"></use>
                </mask>
                <g id="Clip-8"></g>
                <path d="M27.8609,0.2016 L23.1499,0.2016 C22.0669,0.2016 21.1019,0.7346 20.5199,1.5646 C19.9379,0.7346 18.9739,0.2016 17.8899,0.2016 L13.1799,0.2016 C12.0949,0.2016 11.1299,0.7346 10.5479,1.5646 C9.9669,0.7346 9.0029,0.2016 7.9179,0.2016 L3.2069,0.2016 C1.4379,0.2016 -0.0001,1.6356 -0.0001,3.3986 L-0.0001,14.6706 C-0.0001,15.4056 0.5959,15.9996 1.3289,15.9996 L9.7739,15.9996 L11.3209,15.9996 L19.7469,15.9996 L21.2929,15.9996 L29.7369,15.9996 C30.4739,15.9996 31.0679,15.4056 31.0679,14.6706 L31.0679,3.3986 C31.0679,1.6356 29.6279,0.2016 27.8609,0.2016 M11.3209,14.6706 L9.7739,14.6706 L11.3209,14.6706 M21.2929,14.6706 L19.7469,14.6706 L21.2929,14.6706 M7.9179,1.5306 C8.8849,1.5306 9.6879,2.2676 9.7859,3.2056 C9.7819,3.2706 9.7739,3.3336 9.7739,3.3986 L9.7739,14.6706 L1.3289,14.6706 L1.3289,3.3986 C1.3289,2.3716 2.1739,1.5306 3.2069,1.5306 L7.9179,1.5306 M17.8899,1.5306 C18.8579,1.5306 19.6599,2.2676 19.7569,3.2056 C19.7519,3.2706 19.7469,3.3336 19.7469,3.3986 L19.7469,14.6706 L11.3209,14.6706 L11.3209,3.3986 C11.3209,3.3336 11.3159,3.2706 11.3119,3.2056 C11.4099,2.2676 12.2119,1.5306 13.1799,1.5306 L17.8899,1.5306 M27.8609,1.5306 C28.8939,1.5306 29.7369,2.3716 29.7369,3.3986 L29.7369,14.6706 L21.2929,14.6706 L21.2929,3.3986 C21.2929,3.3336 21.2879,3.2706 21.2839,3.2056 C21.3809,2.2676 22.1829,1.5306 23.1499,1.5306 L27.8609,1.5306" id="Fill-7" fill="#FEFEFE" mask="url(#mask-8)"></path>
            </g>
            <path d="M15.4966,21.4004 C9.2796,21.4004 4.2216,16.3424 4.2216,10.1264 L5.5516,10.1264 C5.5516,15.6094 10.0126,20.0714 15.4966,20.0714 C20.9796,20.0714 25.4416,15.6094 25.4416,10.1264 L26.7716,10.1264 C26.7716,16.3424 21.7126,21.4004 15.4966,21.4004" id="Fill-9" fill="#FEFEFE"></path>
        </g>
    </g>
</svg>