<?xml version="1.0" encoding="UTF-8"?>
<svg width="28px" height="33px" viewBox="0 0 28 33" version="1.1" xmlns="http://www.w3.org/2000/svg" xmlns:xlink="http://www.w3.org/1999/xlink">
    <!-- Generator: Sketch 52.5 (67469) - http://www.bohemiancoding.com/sketch -->
    <title>Training_Course_icon</title>
    <desc>Created with Sketch.</desc>
    <g id="Training_Course_icon" stroke="none" stroke-width="1" fill="none" fill-rule="evenodd">
        <g id="分组">
            <path d="M23.0064,4.2539 C22.8174,3.7039 22.3254,3.3359 21.7814,3.3359 L17.7664,3.3359 L17.7664,2.4239 L21.7814,2.4239 C22.7134,2.4239 23.5524,3.0399 23.8684,3.9569 L23.0064,4.2539 Z" id="Fill-1" fill="#FEFEFE"></path>
            <path d="M21.7815,32.7656 L2.2185,32.7656 C0.9955,32.7656 0.0005,31.7256 0.0005,30.4476 L0.0005,4.7416 C0.0005,3.4636 0.9955,2.4246 2.2185,2.4246 L6.2215,2.4246 L6.2215,3.3356 L2.2185,3.3356 C1.4975,3.3356 0.9125,3.9666 0.9125,4.7416 L0.9125,30.4476 C0.9125,31.2236 1.4975,31.8536 2.2185,31.8536 L21.7815,31.8536 C22.5005,31.8536 23.0875,31.2236 23.0875,30.4476 L23.0875,9.6756 L23.9985,9.6756 L23.9985,30.4476 C23.9985,31.7256 23.0035,32.7656 21.7815,32.7656" id="Fill-3" fill="#FEFEFE"></path>
            <path d="M6.4195,5.7998 L17.4685,5.7998 L17.4685,2.8548 L15.2835,2.8548 C15.0325,2.8548 14.8275,2.6508 14.8275,2.3988 L14.8275,0.9118 L9.0605,0.9118 L9.0605,2.3988 C9.0605,2.6508 8.8555,2.8548 8.6045,2.8548 L6.4195,2.8548 L6.4195,5.7998 Z M17.9255,6.7118 L5.9635,6.7118 C5.7105,6.7118 5.5075,6.5078 5.5075,6.2568 L5.5075,2.3988 C5.5075,2.1458 5.7105,1.9428 5.9635,1.9428 L8.1485,1.9428 L8.1485,0.4558 C8.1485,0.2038 8.3525,-0.0002 8.6045,-0.0002 L15.2835,-0.0002 C15.5355,-0.0002 15.7395,0.2038 15.7395,0.4558 L15.7395,1.9428 L17.9255,1.9428 C18.1775,1.9428 18.3805,2.1458 18.3805,2.3988 L18.3805,6.2568 C18.3805,6.5078 18.1775,6.7118 17.9255,6.7118 Z" id="Fill-5" fill="#FEFEFE"></path>
            <polygon id="Fill-7" fill="#FEFEFE" points="21.0755 29.7232 2.8125 29.7232 2.8125 5.1552 5.9635 5.1552 5.9635 6.0672 3.7245 6.0672 3.7245 28.8112 20.1635 28.8112 20.1635 12.7162 21.0755 12.7162"></polygon>
            <polygon id="Fill-9" fill="#FEFEFE" points="21.0755 7.2446 20.1635 7.2446 20.1635 6.0666 17.9255 6.0666 17.9255 5.1556 21.0755 5.1556"></polygon>
            <path d="M14.5447,14.0039 L16.4617,15.9219 L25.9187,6.4639 L24.0027,4.5469 L14.5447,14.0039 Z M16.4617,16.9829 C16.3457,16.9829 16.2337,16.9369 16.1517,16.8549 L13.6127,14.3159 C13.4407,14.1439 13.4407,13.8639 13.6127,13.6929 L23.6917,3.6139 C23.7737,3.5319 23.8857,3.4849 24.0027,3.4849 C24.1187,3.4849 24.2317,3.5319 24.3137,3.6139 L26.8527,6.1529 C27.0247,6.3249 27.0247,6.6039 26.8527,6.7749 L16.7737,16.8549 C16.6897,16.9369 16.5777,16.9829 16.4617,16.9829 Z" id="Fill-11" fill="#FEFEFE"></path>
            <path d="M13.8875,16.5791 C14.2235,16.9161 14.9875,16.6961 15.5945,16.0901 L14.3765,14.8721 C13.7705,15.4791 13.5505,16.2441 13.8875,16.5791" id="Fill-13" fill="#FEFEFE"></path>
            <path d="M26.9869,4.9102 C27.0519,4.9752 27.0519,5.0792 26.9869,5.1442 L25.9279,6.2052 C25.8619,6.2702 25.7569,6.2702 25.6919,6.2052 L24.2609,4.7752 C24.1969,4.7102 24.1969,4.6052 24.2609,4.5392 L25.3219,3.4792 C25.3869,3.4152 25.4919,3.4152 25.5569,3.4802 L26.9869,4.9102 Z" id="Fill-15" fill="#FEFEFE"></path>
            <polygon id="Fill-17" fill="#FEFEFE" points="24.1075 8.8989 21.5665 6.3599 22.1895 5.7389 24.7295 8.2759"></polygon>
            <path d="M13.6885,3.1509 C13.6885,3.6069 13.3385,3.9759 12.9075,3.9759 L10.9795,3.9759 C10.5495,3.9759 10.1995,3.6069 10.1995,3.1509 C10.1995,2.6959 10.5495,2.3269 10.9795,2.3269 L12.9075,2.3269 C13.3385,2.3269 13.6885,2.6959 13.6885,3.1509" id="Fill-19" fill="#FEFEFE"></path>
            <path d="M8.1358,10.9277 C7.3378,10.9277 6.6888,11.5757 6.6888,12.3757 C6.6888,13.1737 7.3378,13.8237 8.1358,13.8237 C8.9358,13.8237 9.5838,13.1737 9.5838,12.3757 C9.5838,11.5757 8.9358,10.9277 8.1358,10.9277 M8.1358,14.8557 C6.7688,14.8557 5.6548,13.7427 5.6548,12.3757 C5.6548,11.0077 6.7688,9.8957 8.1358,9.8957 C9.5038,9.8957 10.6158,11.0077 10.6158,12.3757 C10.6158,13.7427 9.5038,14.8557 8.1358,14.8557" id="Fill-21" fill="#EB6800"></path>
            <path d="M15.9942,22.7139 C15.1962,22.7139 14.5462,23.3639 14.5462,24.1619 C14.5462,24.9599 15.1962,25.6099 15.9942,25.6099 C16.7922,25.6099 17.4422,24.9599 17.4422,24.1619 C17.4422,23.3639 16.7922,22.7139 15.9942,22.7139 M15.9942,26.6419 C14.6262,26.6419 13.5142,25.5279 13.5142,24.1619 C13.5142,22.7939 14.6262,21.6819 15.9942,21.6819 C17.3612,21.6819 18.4732,22.7939 18.4732,24.1619 C18.4732,25.5279 17.3612,26.6419 15.9942,26.6419" id="Fill-23" fill="#EB6800"></path>
            <path d="M11.4651,24.1338 C9.3331,24.1338 7.5991,22.3988 7.5991,20.2668 L7.5991,14.3038 L8.6311,14.3038 L8.6311,20.2668 C8.6311,21.8308 9.9021,23.1018 11.4651,23.1018 L11.4651,24.1338 Z" id="Fill-25" fill="#EB6800"></path>
            <polygon id="Fill-27" fill="#EB6800" points="10.4212 25.7354 9.8222 24.8944 11.4362 23.7454 10.8552 21.8434 11.8432 21.5434 12.6392 24.1554"></polygon>
        </g>
    </g>
</svg>