<?xml version="1.0" encoding="UTF-8"?>
<svg width="280px" height="59px" viewBox="0 0 280 59" version="1.1" xmlns="http://www.w3.org/2000/svg" xmlns:xlink="http://www.w3.org/1999/xlink">
    <!-- Generator: Sketch 52.5 (67469) - http://www.bohemiancoding.com/sketch -->
    <title>NBA_Logo</title>
    <desc>Created with Sketch.</desc>
    <g id="NBA_Logo" stroke="none" stroke-width="1" fill="none" fill-rule="evenodd">
        <g id="分组-2" transform="translate(0.000000, 0.299000)">
            <path d="M19.9949,0.8467 L6.8219,0.8467 C3.6029,0.8467 0.9909,3.4617 0.9909,6.6697 L0.9909,51.2947 C0.9909,54.5117 3.6029,57.1287 6.8219,57.1287 L19.9859,57.1287 C23.2029,57.1287 25.8269,54.5117 25.8269,51.2947 L25.8269,6.6697 C25.8269,3.4617 23.2099,0.8467 19.9949,0.8467" id="Fill-16" fill="#FEFEFE"></path>
            <path d="M19.9949,0.8467 L6.8219,0.8467 C3.6029,0.8467 0.9909,3.4617 0.9909,6.6697 L0.9909,51.2947 C0.9909,54.5117 3.6029,57.1287 6.8219,57.1287 L19.9859,57.1287 C23.2029,57.1287 25.8269,54.5117 25.8269,51.2947 L25.8269,6.6697 C25.8269,3.4617 23.2099,0.8467 19.9949,0.8467" id="Fill-18" fill="#FEFEFE"></path>
            <path d="M16.7312,11.1665 L16.7422,11.3585 C17.1462,11.5925 17.3472,11.7825 17.7522,12.0415 C18.8282,12.7195 20.1532,13.9195 19.9862,18.0635 C20.2892,18.9655 20.4232,20.7435 20.6982,21.3125 C21.2572,22.4235 21.6272,23.1445 21.7952,24.1965 C21.7952,24.1965 21.9592,25.8235 22.1662,25.9385 C23.2792,26.1935 22.9582,26.3005 23.1212,26.4925 C23.2922,26.7155 23.9342,26.7065 23.9342,27.3045 C24.1552,27.5985 24.3212,27.9115 24.4502,28.2325 L24.4502,6.6715 C24.4502,4.2155 22.4512,2.2205 20.0022,2.2205 L15.7432,2.2205 C16.4252,2.4615 16.8122,2.7475 17.0372,3.2075 C17.5852,3.2535 18.2372,4.4895 17.2172,6.3055 C17.6722,6.6065 17.3172,7.0555 16.9952,7.5795 C16.9012,7.7445 16.8002,8.0415 16.5022,8.0205 C16.1142,8.8335 15.6402,9.6225 15.2932,9.6715 C15.1872,9.8055 15.1072,10.1535 15.2652,10.3185 C15.7862,10.5505 16.4172,10.8705 16.7312,11.1665" id="Fill-20" fill="#CD1427"></path>
            <path d="M24.4499,31.1529 C23.8699,32.6209 22.4329,33.6529 20.7449,33.6529 C18.5499,33.6529 16.7779,31.8779 16.7779,29.6869 C16.7779,27.8109 18.0629,26.2419 19.8159,25.8229 C19.3539,24.6769 18.3909,22.8209 18.1029,22.2139 C17.8309,21.6069 17.1759,17.8329 17.0369,17.0869 C17.0059,16.9219 15.3239,18.0599 15.3179,18.1319 C15.2209,18.2269 14.0579,21.2639 14.0099,21.4279 C13.9859,21.5309 13.9849,21.9399 13.9849,21.9399 C13.9849,21.9399 14.5539,22.0079 14.8869,23.0039 C15.2129,24.0009 16.2049,27.6389 16.2049,27.6389 C16.2049,27.6389 15.9319,27.9159 15.9259,27.8979 C17.1759,32.1009 16.7379,33.9079 17.3009,35.1369 C18.0079,36.8729 18.1989,36.6429 18.8049,38.1039 C19.2429,39.1639 19.7269,43.3489 19.8879,43.5309 C20.5659,44.3899 20.9359,45.0619 20.9359,45.5459 C20.9359,46.0299 20.3569,47.4709 20.5659,48.3099 C20.6929,48.8049 20.7589,49.9119 20.9919,50.1189 C20.9919,50.1189 21.1999,50.5359 21.0969,50.7189 C21.0679,50.7839 21.0079,50.8799 21.0299,50.9509 C21.4099,52.2739 22.6099,54.5229 20.6599,55.7009 L20.7049,55.7009 C22.8349,55.3689 24.4499,53.5389 24.4499,51.2949 L24.4499,31.1529 Z" id="Fill-22" fill="#CD1427"></path>
            <path d="M19.4353,50.4429 C18.7193,49.8049 19.1963,49.5319 19.1673,49.2779 C18.6953,47.3329 17.1463,46.1529 17.9473,45.5099 C17.7443,44.8659 17.3473,44.0579 17.3583,44.0599 C14.9513,42.6749 12.8943,40.4219 12.5483,40.0939 C12.1183,39.6319 11.3993,39.1709 11.2663,38.7969 C10.6863,38.2639 7.8413,34.2289 7.1763,32.7459 L6.0233,32.5829 C5.4983,30.4369 3.7473,28.6389 3.7013,26.4879 C3.6833,25.6739 4.0693,23.9309 4.2143,23.5859 C4.3543,23.2329 5.0263,22.6549 5.0263,22.6549 L5.0263,22.0799 C2.5113,22.1509 3.2333,21.8929 2.7993,20.9149 C2.4943,20.2369 2.7123,20.0859 2.8273,19.6239 C3.1613,18.2289 4.2833,16.0919 4.7453,15.1149 C4.8903,14.6269 5.3753,13.4439 5.3753,13.4439 C7.2503,9.6229 7.9533,9.9039 10.1793,9.6879 L10.2893,9.5289 C12.5263,9.4309 12.1583,9.2659 12.4743,7.1109 C12.1473,7.2539 12.0533,6.4399 12.0533,6.4399 C11.8763,5.2129 12.3923,5.4469 12.6353,5.4199 C12.6893,3.4079 12.8943,2.7759 14.3493,2.2209 L6.8223,2.2209 C4.3593,2.2209 2.3673,4.2149 2.3673,6.6759 L2.3673,51.2949 C2.3673,53.7599 4.3593,55.7549 6.8223,55.7549 L20.0013,55.7549 C18.4943,54.9399 19.3793,53.3869 19.4353,50.4429" id="Fill-24" fill="#08397D"></path>
            <polygon id="Fill-26" fill="#FEFEFE" points="115.863 32.7837 111.745 32.7837 111.745 55.6967 104.554 55.6967 104.554 2.2247 111.745 2.2247 111.745 26.4887 115.863 26.4887 115.863 2.2247 123.053 2.2247 123.053 55.6967 115.863 55.6967"></polygon>
            <path d="M137.946,11.9629 C137.946,9.2659 137.279,8.5159 135.933,8.5159 C134.506,8.5159 133.837,9.2659 133.837,11.9629 L133.837,45.9629 C133.837,48.6559 134.506,49.4029 135.933,49.4029 C137.279,49.4029 137.946,48.6559 137.946,45.9629 L137.946,11.9629 Z M145.14,12.6339 L145.14,45.2869 C145.14,53.4499 142.225,56.1449 135.933,56.1449 C129.638,56.1449 126.647,53.4499 126.647,45.2869 L126.647,12.6339 C126.647,4.4739 129.638,1.7789 135.933,1.7789 C142.144,1.7789 145.14,4.4739 145.14,12.6339 Z" id="Fill-28" fill="#FEFEFE"></path>
            <path d="M160.0427,11.9629 C160.0427,9.2659 159.3707,8.5159 158.0217,8.5159 C156.5957,8.5159 155.9247,9.2659 155.9247,11.9629 L155.9247,45.9629 C155.9247,48.6559 156.5957,49.4029 158.0217,49.4029 C159.3707,49.4029 160.0427,48.6559 160.0427,45.9629 L160.0427,11.9629 Z M167.2297,12.6339 L167.2297,45.2869 C167.2297,53.4499 164.3107,56.1449 158.0217,56.1449 C151.7317,56.1449 148.7337,53.4499 148.7337,45.2869 L148.7337,12.6339 C148.7337,4.4739 151.7317,1.7789 158.0217,1.7789 C164.2337,1.7789 167.2297,4.4739 167.2297,12.6339 Z" id="Fill-30" fill="#FEFEFE"></path>
            <path d="M178.0144,8.9668 L178.0144,33.3768 L179.2094,33.3768 C181.4584,33.3768 182.1344,32.1048 182.1344,29.6348 L182.1344,12.7858 C182.1344,10.2378 181.4584,8.9668 179.2094,8.9668 L178.0144,8.9668 Z M178.0144,39.8188 L178.0144,55.6958 L170.8224,55.6958 L170.8224,2.2248 L179.7384,2.2248 C185.7994,2.2248 189.3204,5.6728 189.3204,13.0088 L189.3204,28.8858 C189.3204,36.2228 185.7994,39.8188 179.7384,39.8188 L178.0144,39.8188 Z" id="Fill-32" fill="#FEFEFE"></path>
            <path d="M204.3318,8.9668 L204.3318,33.3768 L205.5358,33.3768 C207.7818,33.3768 208.4538,32.1048 208.4538,29.6348 L208.4538,12.7858 C208.4538,10.2378 207.7818,8.9668 205.5358,8.9668 L204.3318,8.9668 Z M204.3318,39.8188 L204.3318,55.6958 L197.1518,55.6958 L197.1518,2.2248 L206.0618,2.2248 C212.1218,2.2248 215.6448,5.6728 215.6448,13.0088 L215.6448,28.8858 C215.6448,36.2228 212.1218,39.8188 206.0618,39.8188 L204.3318,39.8188 Z" id="Fill-34" fill="#FEFEFE"></path>
            <path d="M224.2595,38.4742 L227.9175,38.4742 L227.4055,29.7872 C227.0975,25.7412 226.3525,12.7102 225.9775,6.2722 C225.5275,12.7102 225.0015,25.9662 224.7795,29.7872 L224.2595,38.4742 Z M228.3015,45.1382 L223.8775,45.1382 L223.2815,55.6962 L216.0205,55.6962 L221.1835,2.2252 L231.4405,2.2252 L236.5375,55.6962 L228.9685,55.6962 L228.3015,45.1382 Z" id="Fill-36" fill="#FEFEFE"></path>
            <path d="M245.5925,8.9668 L245.5925,31.3558 L246.7945,31.3558 C249.1135,31.3558 249.7105,30.0838 249.7105,27.5408 L249.7105,12.7858 C249.7105,10.2378 249.1135,8.9668 246.7945,8.9668 L245.5925,8.9668 Z M246.8705,37.5748 L245.5925,37.5748 L245.5925,55.6958 L238.4075,55.6958 L238.4075,2.2248 L247.3135,2.2248 C253.3825,2.2248 256.9065,5.5988 256.9065,13.0088 L256.9065,26.7918 C256.9065,32.2568 254.9525,35.5498 251.4355,36.8998 C253.3075,37.5748 254.1315,39.5198 254.8795,43.0428 C255.4055,45.1378 257.2805,55.6958 257.2805,55.6958 L249.7865,55.6958 L246.8705,37.5748 Z" id="Fill-38" fill="#FEFEFE"></path>
            <polygon id="Fill-40" fill="#FEFEFE" points="267.6843 32.3282 267.6843 55.6962 260.4953 55.6962 260.4953 2.2252 267.6843 2.2252 267.6843 26.4882 268.1353 26.4882 272.4743 2.2252 279.5143 2.2252 274.4263 27.9152 279.6643 55.6962 272.5453 55.6962 268.1353 32.3282"></polygon>
            <path d="M38.7761,55.7544 L32.4741,55.7544 L32.4741,2.2204 L42.2211,2.2204 L48.7491,46.3784 C47.7681,35.8844 46.4931,18.9394 46.4931,10.0154 L46.4931,2.2204 L52.7951,2.2204 L52.7951,55.7544 L43.8671,55.7544 L37.8731,12.8644 C38.3971,22.4634 38.7761,33.9344 38.7761,40.3834 L38.7761,55.7544 Z" id="Fill-10" fill="#FEFEFE"></path>
            <path d="M63.5925,32.5113 L63.5925,49.0063 L64.7895,49.0063 C67.0385,49.0063 67.7125,47.7303 67.7125,45.1823 L67.7125,36.1073 C67.7125,33.4863 66.8925,32.5113 64.4885,32.5113 L63.5925,32.5113 Z M63.5925,8.9673 L63.5925,26.6623 L64.4885,26.6623 C67.0385,26.6623 67.7125,25.6893 67.7125,22.7643 L67.7125,12.5673 C67.7125,10.0943 66.9635,8.9673 64.7895,8.9673 L63.5925,8.9673 Z M56.3955,55.7543 L56.3955,2.2203 L65.3125,2.2203 C71.2355,2.2203 74.9085,5.4453 74.9085,12.9423 L74.9085,20.8123 C74.9085,25.6893 73.4125,28.1613 71.3085,29.4353 C73.4125,30.7863 74.9085,33.1853 74.9085,37.3093 L74.9085,45.1063 C74.9085,52.4523 71.0145,55.7543 65.3125,55.7543 L56.3955,55.7543 Z" id="Fill-12" fill="#FEFEFE"></path>
            <path d="M84.1091,39.6324 L87.9301,39.6324 L87.3331,29.8124 C87.1071,25.9124 86.5071,13.5404 86.0591,6.8674 L85.7591,6.8674 L84.7051,29.8124 L84.1091,39.6324 Z M88.3071,45.7064 L83.8101,45.7064 L83.2081,55.7544 L75.9401,55.7544 L81.1841,2.2204 L91.3811,2.2204 L96.4791,55.7544 L88.9031,55.7544 L88.3071,45.7064 Z" id="Fill-14" fill="#FEFEFE"></path>
        </g>
    </g>
</svg>