<?xml version="1.0" encoding="UTF-8"?>
<svg width="27px" height="27px" viewBox="0 0 27 27" version="1.1" xmlns="http://www.w3.org/2000/svg" xmlns:xlink="http://www.w3.org/1999/xlink">
    <!-- Generator: Sketch 52.5 (67469) - http://www.bohemiancoding.com/sketch -->
    <title>Setting_icon</title>
    <desc>Created with Sketch.</desc>
    <g id="Setting_icon" stroke="none" stroke-width="1" fill="none" fill-rule="evenodd">
        <g id="分组">
            <path d="M18.382,17.4082 C18.008,16.9142 17.344,15.8532 17.148,14.3702 C18.31,14.1722 19.203,13.9152 19.79,13.7132 C19.721,15.0292 19.255,16.3252 18.382,17.4082 Z M13.927,14.6742 C14.686,14.6562 15.385,14.6052 16.025,14.5312 C16.273,16.3992 17.143,17.6832 17.583,18.2282 C16.526,19.1472 15.244,19.6672 13.927,19.7832 L13.927,14.6742 Z M10.631,14.5192 C11.289,14.5992 12.012,14.6552 12.795,14.6742 L12.795,19.7832 C11.465,19.6672 10.167,19.1332 9.102,18.1932 C9.55,17.6282 10.39,16.3552 10.631,14.5192 Z M9.509,14.3552 C9.321,15.8042 8.689,16.8482 8.309,17.3632 C7.457,16.2892 7,15.0102 6.932,13.7102 C7.508,13.9062 8.382,14.1572 9.509,14.3552 Z M9.556,13.2082 C8.323,12.9812 7.444,12.6952 6.977,12.5212 C7.124,11.4072 7.558,10.3242 8.288,9.3942 C8.722,10.0522 9.474,11.4402 9.556,13.2082 Z M12.795,13.5412 C12.033,13.5222 11.33,13.4642 10.694,13.3842 C10.655,11.0262 9.574,9.2412 9.084,8.5512 C10.152,7.6012 11.457,7.0622 12.795,6.9452 L12.795,13.5412 Z M13.927,13.5432 L13.927,6.9452 C15.249,7.0602 16.537,7.5862 17.599,8.5142 C17.12,9.1792 15.997,10.9922 15.961,13.3992 C15.343,13.4712 14.665,13.5242 13.927,13.5432 Z M19.746,12.5242 C19.276,12.7012 18.374,12.9982 17.099,13.2272 C17.178,11.4192 17.971,9.9932 18.401,9.3492 C19.152,10.2892 19.598,11.3902 19.746,12.5242 Z M18.707,7.9922 C17.28,6.5692 15.379,5.7852 13.361,5.7852 C11.33,5.7852 9.423,6.5782 7.989,8.0172 C5.041,10.9812 5.053,15.7882 8.015,18.7372 C9.446,20.1592 11.344,20.9432 13.361,20.9432 C15.393,20.9432 17.301,20.1502 18.733,18.7102 C20.162,17.2772 20.946,15.3702 20.942,13.3462 C20.936,11.3222 20.144,9.4202 18.707,7.9922 Z" id="Fill-1" fill="#EB6800"></path>
            <path d="M26.2275,15.521 L26.2275,11.209 L23.3135,11.209 C23.0525,9.995 22.5735,8.864 21.9245,7.856 L23.9855,5.794 L20.9345,2.744 L18.8735,4.805 C17.8635,4.155 16.7335,3.677 15.5215,3.416 L15.5215,0.5 L11.2075,0.5 L11.2075,3.416 C9.9955,3.677 8.8655,4.155 7.8555,4.805 L5.7925,2.743 L2.7425,5.792 L4.8045,7.855 C4.1535,8.864 3.6755,9.995 3.4135,11.209 L0.4995,11.209 L0.4995,15.521 L3.4135,15.521 C3.6755,16.733 4.1535,17.866 4.8045,18.874 L2.7425,20.935 L5.7925,23.986 L7.8535,21.924 C8.8635,22.575 9.9955,23.053 11.2075,23.314 L11.2075,26.229 L15.5215,26.229 L15.5215,23.314 C16.7335,23.053 17.8645,22.575 18.8735,21.924 L20.9345,23.986 L23.9855,20.935 L21.9245,18.873 C22.5735,17.866 23.0525,16.733 23.3135,15.521 L26.2275,15.521 Z" id="Stroke-3" stroke="#FEFEFE"></path>
        </g>
    </g>
</svg>