<?xml version="1.0" encoding="UTF-8"?>
<svg width="272px" height="30px" viewBox="0 0 272 30" version="1.1" xmlns="http://www.w3.org/2000/svg" xmlns:xlink="http://www.w3.org/1999/xlink">
    <!-- Generator: Sketch 52.5 (67469) - http://www.bohemiancoding.com/sketch -->
    <title>Match_Manage Copy 7</title>
    <desc>Created with Sketch.</desc>
    <defs>
        <polygon id="path-1" points="0 0.0392206897 25.5088889 0.0392206897 25.5088889 22 0 22"></polygon>
    </defs>
    <g id="Match_Manage-Copy-7" stroke="none" stroke-width="1" fill="none" fill-rule="evenodd">
        <g id="分组-2" transform="translate(45.000000, 0.000000)">
            <g id="More_seleted-Copy" transform="translate(215.000000, 9.000000)" stroke="#FFFFFF" stroke-linecap="round" stroke-linejoin="round">
                <g id="分组" transform="translate(2.000000, 2.000000)">
                    <polyline id="Stroke-4" stroke-width="2" points="0.3857 12.3516 7.5947 6.3596 0.3857 0.3646"></polyline>
                </g>
            </g>
            <text id="赛事活动" font-family="MicrosoftYaHei, Microsoft YaHei" font-size="21.4844" font-weight="normal" fill="#FEFEFE">
                <tspan x="0" y="23">赛事活动</tspan>
            </text>
        </g>
        <g id="match_icon" transform="translate(2.000000, 3.000000)">
            <g id="分组">
                <g transform="translate(0.000000, 2.000000)">
                    <mask id="mask-2" fill="white">
                        <use xlink:href="#path-1"></use>
                    </mask>
                    <g id="Clip-2"></g>
                    <path d="M2.69049444,1.76128966 C2.11055,1.76128966 1.63749444,2.25666897 1.63749444,2.8666 L1.63749444,19.1731517 C1.63749444,19.7838414 2.11055,20.2792207 2.69049444,20.2792207 L22.8173833,20.2792207 C23.39805,20.2792207 23.8711056,19.7838414 23.8711056,19.1731517 L23.8711056,2.8666 C23.8711056,2.25666897 23.39805,1.76128966 22.8173833,1.76128966 L2.69049444,1.76128966 Z M22.8173833,22.000531 L2.69049444,22.000531 C1.20632778,22.000531 -0.000505555556,20.7321172 -0.000505555556,19.1731517 L-0.000505555556,2.8666 C-0.000505555556,1.30763448 1.20632778,0.0392206897 2.69049444,0.0392206897 L22.8173833,0.0392206897 C24.3022722,0.0392206897 25.5091056,1.30763448 25.5091056,2.8666 L25.5091056,19.1731517 C25.5091056,20.7321172 24.3022722,22.000531 22.8173833,22.000531 Z" id="Fill-1" fill="#FEFEFE" mask="url(#mask-2)"></path>
                </g>
                <path d="M8.6369248,8 L7.36363636,8 C7.16386083,8 7,7.75564854 7,7.45774059 L7,0.543096234 C7,0.245188285 7.16386083,0 7.36363636,0 L8.6369248,0 C8.83670034,0 9,0.245188285 9,0.543096234 L9,7.45774059 C9,7.75564854 8.83670034,8 8.6369248,8" id="Fill-3" fill="#FEFEFE"></path>
                <path d="M18.6368229,8 L17.3631771,8 C17.1633455,8 17,7.75564854 17,7.45774059 L17,0.543096234 C17,0.245188285 17.1633455,0 17.3631771,0 L18.6368229,0 C18.8366545,0 19,0.245188285 19,0.543096234 L19,7.45774059 C19,7.75564854 18.8366545,8 18.6368229,8" id="Fill-5" fill="#FEFEFE"></path>
                <path d="M10,15.0004065 C10,18.3140031 8.43361345,21 6.5,21 C4.56722689,21 3,18.3140031 3,15.0004065 C3,11.6868098 4.56722689,9 6.5,9 C8.43361345,9 10,11.6868098 10,15.0004065 Z" id="Stroke-7" stroke="#EB6800" stroke-width="2"></path>
                <path d="M22,15.0004065 C22,18.3140031 20.6568239,21 18.9996399,21 C17.3431761,21 16,18.3140031 16,15.0004065 C16,11.6868098 17.3431761,9 18.9996399,9 C20.6568239,9 22,11.6868098 22,15.0004065 Z" id="Stroke-9" stroke="#EB6800" stroke-width="2"></path>
                <path d="M14,12.5 C14,13.328 13.5526667,14 13,14 C12.448,14 12,13.328 12,12.5 C12,11.672 12.448,11 13,11 C13.5526667,11 14,11.672 14,12.5" id="Fill-11" fill="#FFFFFF"></path>
                <path d="M14,16.5 C14,17.328 13.5526667,18 13,18 C12.448,18 12,17.328 12,16.5 C12,15.672 12.448,15 13,15 C13.5526667,15 14,15.672 14,16.5" id="Fill-13" fill="#FFFFFF"></path>
            </g>
        </g>
    </g>
</svg>